<svg width="95" height="96" viewBox="0 0 95 96" fill="none" xmlns="http://www.w3.org/2000/svg">
<path d="M88.6292 71.1562L93.8596 57.8098L91.0451 56.6605L85.3645 71.1562H84.875V52.5938H81.8438V27.8438H75.7812V21.6562H72.75V27.8438H69.7188V18.5625H66.6875V27.8438H63.6562V21.6562H60.625V27.8438H54.5625V46.4062H48.5V54.3402C44.9277 49.8635 40.0519 46.6027 34.5184 45.1084L33.8303 43.0031C36.04 42.3797 37.8558 40.7849 38.7636 38.6719H39.4062C42.7497 38.6719 45.4688 35.8968 45.4688 32.4844V24.75C47.1405 24.75 48.5 23.3625 48.5 21.6562V18.5625C48.5 16.8563 47.1405 15.4688 45.4688 15.4688H45.205C43.7546 6.55875 36.2886 0 27.2812 0C18.2739 0 10.8079 6.55875 9.35747 15.4688H9.09375C7.42202 15.4688 6.0625 16.8563 6.0625 18.5625V21.6562C6.0625 23.3625 7.42202 24.75 9.09375 24.75V32.4844C9.09375 35.8968 11.8128 38.6719 15.1562 38.6719H15.7989C16.7083 40.7849 18.5225 42.3813 20.7322 43.0031L20.0441 45.1084C8.19953 48.2965 0 59.103 0 71.6853V72.7031C0 79.299 3.70419 85.0178 9.09375 87.8408V95.9062H54.5625V83.5312H59.2625C59.9672 87.0566 63.0273 89.7188 66.6875 89.7188C70.3477 89.7188 73.4078 87.0566 74.1125 83.5312H81.7195C87.8047 83.5312 92.9487 79.084 93.949 72.9584L94.2431 71.1562H88.6292ZM69.7188 71.1562V55.6875H81.8438V71.1562H69.7188ZM57.5938 30.9375H78.8125V52.5938H69.7188V46.4062H57.5938V30.9375ZM66.6875 49.5V71.1562H51.5312V49.5H66.6875ZM48.5 59.8269V71.1562H48.0104L42.3284 56.6589L39.5139 57.8083L44.7458 71.1562H39.1334L39.4275 72.9584C39.8291 75.4179 40.9067 77.6005 42.4375 79.3392V92.8125H34.8594V89.7188C37.3662 89.7188 39.4062 87.6367 39.4062 85.0781C39.4062 82.5196 37.3662 80.4375 34.8594 80.4375V48.459C40.6385 50.3338 45.5263 54.3804 48.5 59.8269ZM30.7354 43.3125L31.6705 46.1773L27.2812 52.8985L22.8905 46.1773L23.8271 43.3125H30.7354ZM31.8281 59.0117L29.1576 55.604L31.8281 51.5156V59.0117ZM22.7344 59.0117V51.5156L25.4049 55.604L22.7344 59.0117ZM22.7344 63.9633L27.2812 58.1625L31.8281 63.9633V77.616C31.3522 77.4443 30.8445 77.3438 30.3125 77.3438H28.5377C27.3237 77.3438 26.1809 77.8264 25.3215 78.7035L23.7665 80.2905L22.7344 80.0554V63.9633ZM25.7656 82.6248L27.4646 80.8907C27.7511 80.5984 28.133 80.4375 28.5377 80.4375H30.3125C31.1476 80.4375 31.8281 81.132 31.8281 81.9844V83.5312H34.8594C35.6945 83.5312 36.375 84.2258 36.375 85.0781C36.375 85.9305 35.6945 86.625 34.8594 86.625H25.7656V82.6248ZM31.8281 89.7188V92.8125H22.7344V89.7188H31.8281ZM39.4062 35.5781V29.3906C41.078 29.3906 42.4375 30.7782 42.4375 32.4844C42.4375 34.1906 41.078 35.5781 39.4062 35.5781ZM42.4375 27.1569C41.5418 26.6248 40.5157 26.2969 39.4062 26.2969V24.75H42.4375V27.1569ZM42.1283 15.4688H31.8281V3.80222C37.0343 5.44964 41.028 9.85669 42.1283 15.4688ZM28.7969 3.17109V15.4688H25.7656V3.17109C26.2643 3.12159 26.769 3.09375 27.2812 3.09375C27.7935 3.09375 28.2982 3.12159 28.7969 3.17109ZM22.7344 3.80222V15.4688H12.4342C13.5345 9.85669 17.5282 5.44964 22.7344 3.80222ZM9.09223 18.5625H9.09375H45.4688V21.6562H9.09375L9.09223 18.5625ZM15.1562 24.75V26.2969C14.0468 26.2969 13.0207 26.6248 12.125 27.1569V24.75H15.1562ZM12.125 32.4844C12.125 30.7782 13.4845 29.3906 15.1562 29.3906V35.5781C13.4845 35.5781 12.125 34.1906 12.125 32.4844ZM18.1875 35.5781V24.75H36.375V35.5781C36.375 38.1367 34.335 40.2188 31.8281 40.2188H22.7344C20.2275 40.2188 18.1875 38.1367 18.1875 35.5781ZM3.03125 72.7031V71.6853C3.03125 60.919 9.797 51.6254 19.7031 48.4373V79.3702L18.0587 78.9974C14.5652 78.2038 12.125 75.0992 12.125 71.4455V64.9688H9.09375V71.4455C9.09375 76.5595 12.51 80.9062 17.4009 82.0153L22.7344 83.225V86.625H16.6719C9.15134 86.625 3.03125 80.3787 3.03125 72.7031ZM12.125 89.0598C13.5724 89.479 15.0941 89.7188 16.6719 89.7188H19.7031V92.8125H12.125V89.0598ZM45.4688 92.8125V81.8513C47.2617 82.9032 49.3336 83.5034 51.5312 83.5266V92.8125H45.4688ZM66.6875 86.625C64.1807 86.625 62.1406 84.5429 62.1406 81.9844C62.1406 81.132 62.8211 80.4375 63.6562 80.4375H69.7188C70.5539 80.4375 71.2344 81.132 71.2344 81.9844C71.2344 84.5429 69.1943 86.625 66.6875 86.625ZM81.718 80.4375H73.9852C73.3578 78.6416 71.6906 77.3438 69.7172 77.3438H63.6547C61.6814 77.3438 60.0142 78.6416 59.3867 80.4375H51.654C47.677 80.4375 44.2335 77.9238 42.8861 74.25H90.4828C89.1385 77.9238 85.6965 80.4375 81.718 80.4375Z" fill="black"/>
</svg>
