<svg width="98" height="99" viewBox="0 0 98 99" fill="none" xmlns="http://www.w3.org/2000/svg">
<path d="M49 44.5438C50.6367 44.5438 52.1645 43.6532 52.9873 42.2193C53.3849 41.5265 53.1512 40.6391 52.4652 40.2375C51.7794 39.8357 50.901 40.0718 50.5033 40.7648C50.1924 41.3068 49.6163 41.6434 49 41.6434C48.3836 41.6434 47.8077 41.3068 47.4967 40.7648C47.0991 40.0716 46.2209 39.8355 45.5347 40.2375C44.8489 40.6391 44.615 41.5265 45.0126 42.2193C45.8354 43.6532 47.3632 44.5438 49 44.5438Z" fill="black"/>
<path d="M42.6582 36.5352C43.451 36.5352 44.0938 35.8861 44.0938 35.085V33.4834C44.0938 32.6823 43.451 32.0332 42.6582 32.0332C41.8654 32.0332 41.2227 32.6823 41.2227 33.4834V35.085C41.2227 35.8861 41.8654 36.5352 42.6582 36.5352Z" fill="black"/>
<path d="M55.3418 36.5352C56.1346 36.5352 56.7773 35.8861 56.7773 35.085V33.4834C56.7773 32.6823 56.1346 32.0332 55.3418 32.0332C54.549 32.0332 53.9062 32.6823 53.9062 33.4834V35.085C53.9062 35.8861 54.549 36.5352 55.3418 36.5352Z" fill="black"/>
<path d="M90.4396 76.8799H88.4872V62.3133V62.3131C88.487 57.9811 84.9981 54.4565 80.7098 54.4565H72.7822C71.1164 54.4565 69.7612 55.8255 69.7612 57.5083V60.8631H67.7269C66.9341 60.8631 66.2914 61.5122 66.2914 62.3133C66.2914 63.1144 66.9341 63.7635 67.7269 63.7635H85.6161V77.0819C83.7817 77.6552 82.4451 79.3846 82.4451 81.4238V96.0031C82.4451 96.0358 82.4489 96.0673 82.4499 96.0998H29.6748C28.882 96.0998 28.2393 96.7489 28.2393 97.55C28.2393 98.3511 28.882 99.0002 29.6748 99.0002H93.5021C95.9823 99.0002 98.0001 96.9618 98.0001 94.4562V84.5175C98.0001 80.306 94.6084 76.8799 90.4396 76.8799ZM72.6323 57.5083C72.6323 57.4248 72.6997 57.3569 72.7822 57.3569H80.7098C82.9158 57.3569 84.786 58.8356 85.4014 60.8631H72.6323V57.5083ZM95.129 94.4562C95.129 95.3623 94.3992 96.0998 93.5021 96.0998H85.4663H85.4121C85.3593 96.0998 85.3164 96.0563 85.3164 96.0031V92.5934H90.2225C91.0153 92.5934 91.6581 91.9443 91.6581 91.1432C91.6581 90.3421 91.0153 89.693 90.2225 89.693H85.3164V86.1868H90.2225C91.0153 86.1868 91.6581 85.5377 91.6581 84.7366C91.6581 83.9355 91.0153 83.2864 90.2225 83.2864H85.3164V81.4238C85.3164 80.5175 86.0462 79.7802 86.9434 79.7802H90.4396C93.0253 79.7802 95.129 81.9053 95.129 84.5175V94.4562Z" fill="black"/>
<path d="M61.9844 63.7633C62.7772 63.7633 63.42 63.1142 63.42 62.3132C63.42 61.5121 62.7772 60.863 61.9844 60.863H59.9482V53.3995C63.4699 50.4813 65.8342 46.1885 66.2302 41.3402H68.0256C70.5657 41.3402 72.6322 39.2527 72.6322 36.6868V30.2801C72.6322 29.2793 72.3167 28.3519 71.7823 27.592C72.3072 27.0427 72.6322 26.2971 72.6322 25.4751V23.8735C72.6322 21.3074 70.5657 19.2201 68.0256 19.2201H67.8757V12.6619C67.8757 7.44627 63.6755 3.20319 58.5127 3.20319H54.399V2.99707C54.399 1.34443 53.0681 0 51.4322 0H46.5672C44.9313 0 43.6004 1.34443 43.6004 2.99707V3.203H39.4869C34.3241 3.203 30.1237 7.44608 30.1237 12.6618L30.1239 19.2199H29.9742C27.4343 19.2199 25.3678 21.3074 25.3678 23.8733V25.4749C25.3678 26.2969 25.6927 27.0425 26.2177 27.5918C25.6835 28.3517 25.3678 29.2789 25.3678 30.2797V36.6865C25.3678 39.2525 27.4343 41.34 29.9742 41.34H31.77C32.1662 46.1879 34.5301 50.4805 38.0514 53.3985V60.8626H28.2389V57.5078C28.2389 55.825 26.8838 54.456 25.218 54.456H17.2903C13.0018 54.456 9.51308 57.9804 9.51289 62.3126V62.3128V76.8797H7.56055C3.39172 76.8797 0 80.306 0 84.5174V94.4561C0 96.9616 2.0178 99 4.49805 99H23.9323C24.7251 99 25.3678 98.3509 25.3678 97.5498C25.3678 96.7487 24.7251 96.0996 23.9323 96.0996H15.55C15.551 96.0671 15.5548 96.0356 15.5548 96.0029V81.4236C15.5548 79.3847 14.2184 77.6551 12.384 77.0817V63.7633H61.9844ZM69.7613 36.6867C69.7613 37.6533 68.9828 38.4397 68.0258 38.4397H66.2903V28.5267H68.0296C68.9847 28.5288 69.7611 29.3142 69.7611 30.2797V36.6867H69.7613ZM58.5129 6.10339C62.0926 6.10339 65.0048 9.04555 65.0048 12.6618V19.2199H61.534V17.4669C61.534 16.6658 60.8913 16.0167 60.0985 16.0167C59.3057 16.0167 58.663 16.6658 58.663 17.4669V19.2199H54.3994V6.10339H58.5129ZM46.4717 2.99707C46.4717 2.9439 46.5146 2.90039 46.5674 2.90039H51.4324C51.4852 2.90039 51.5281 2.9439 51.5281 2.99707V19.2199H46.4717V2.99707ZM32.9952 12.6618C32.9952 9.04555 35.9074 6.10339 39.4873 6.10339H43.6008V19.2199H39.3372V17.4669C39.3372 16.6658 38.6945 16.0167 37.9017 16.0167C37.1089 16.0167 36.4661 16.6658 36.4661 17.4669V19.2199H32.9956L32.9952 12.6618ZM28.2389 23.8735C28.2389 22.9069 29.0174 22.1205 29.9742 22.1205H68.0258C68.9828 22.1205 69.7613 22.9069 69.7613 23.8735V25.4751C69.7613 25.5586 69.6939 25.6265 69.6114 25.6265H28.3888C28.3061 25.6265 28.2389 25.5584 28.2389 25.4751V23.8735ZM28.2389 36.6867V30.2801C28.2389 29.3135 29.0174 28.5271 29.9742 28.5271H31.7097L31.7099 38.4402H29.9742C29.0174 38.44 28.2389 37.6535 28.2389 36.6867ZM34.581 39.8908L34.5808 28.5271H63.4192V39.8908C63.4192 47.9226 56.9508 54.457 49 54.457C41.0492 54.457 34.581 47.9226 34.581 39.8908ZM40.9225 55.33C43.3349 56.6232 46.0841 57.3573 49.0002 57.3573C51.9161 57.3573 54.6651 56.6234 57.0773 55.3304V60.863H40.9227V55.33H40.9225ZM17.2903 57.3568H25.218C25.3007 57.3568 25.3678 57.4248 25.3678 57.5082V60.863H12.5987C13.2141 58.8354 15.0843 57.3568 17.2903 57.3568ZM12.6839 83.2863H7.77779C6.98499 83.2863 6.34225 83.9354 6.34225 84.7365C6.34225 85.5375 6.98499 86.1867 7.77779 86.1867H12.6839V89.6928H7.77779C6.98499 89.6928 6.34225 90.3419 6.34225 91.143C6.34225 91.9441 6.98499 92.5932 7.77779 92.5932H12.6839V96.0029C12.6839 96.0561 12.641 96.0996 12.5882 96.0996H12.534H4.49805C3.60093 96.0996 2.87109 95.3621 2.87109 94.4561V84.5174C2.87109 81.9051 4.97484 79.7801 7.56055 79.7801H11.057C11.9541 79.7801 12.6839 80.5174 12.6839 81.4236V83.2863Z" fill="black"/>
</svg>
