<svg width="92" height="92" viewBox="0 0 92 92" fill="none" xmlns="http://www.w3.org/2000/svg">
<path d="M91.838 28.4486L78.038 0.849056C77.9107 0.594388 77.715 0.380209 77.4727 0.230516C77.2305 0.0808232 76.9514 0.00152993 76.6667 0.00152025C74.6726 0.00137183 72.7071 0.475095 70.932 1.38365C69.157 2.2922 67.6233 3.60957 66.4573 5.22718C65.2913 6.84479 64.5265 8.71632 64.2258 10.6875C63.9251 12.6588 64.0971 14.6732 64.7278 16.5649L66.8623 22.9703L65.3396 24.493C65.136 24.577 63.3451 23.1922 63.1287 23.0655C63.1116 23.0556 63.0946 23.0464 63.0775 23.0368C59.8805 21.1505 56.3907 19.8119 52.7522 19.0764C54.4772 17.6805 55.7272 15.7841 56.3299 13.6484C56.9326 11.5127 56.8586 9.24275 56.118 7.15089C55.3773 5.05904 54.0065 3.24818 52.1941 1.96756C50.3818 0.686954 48.2171 -0.000440835 45.9979 2.12106e-07C43.7788 0.00044126 41.6144 0.688696 39.8025 1.97003C37.9907 3.25136 36.6206 5.06277 35.8808 7.15492C35.141 9.24706 35.0678 11.5171 35.6714 13.6525C36.275 15.788 37.5257 17.6838 39.2512 19.0791C34.7271 19.9994 30.4415 21.8436 26.6628 24.4961L22.1022 19.9345C21.5265 19.3602 20.7465 19.0377 19.9332 19.0377C19.12 19.0377 18.34 19.3602 17.7643 19.9345L13.8 23.8987C13.3217 24.3757 13.0148 24.9976 12.9271 25.6673C12.8394 26.3371 12.9758 27.017 13.3151 27.6011H9.20001C7.77095 27.5953 6.36051 27.9251 5.08218 28.564C3.80385 29.2028 2.69334 30.1328 1.84001 31.2791L4.29335 33.121C4.86219 32.3566 5.60249 31.7365 6.45469 31.3104C7.3069 30.8843 8.24722 30.6641 9.20001 30.6677H18.4C20.0267 30.6677 21.5867 31.3139 22.7369 32.4641C23.8872 33.6143 24.5333 35.1743 24.5333 36.8009C24.5333 38.4275 23.8872 39.9876 22.7369 41.1378C21.5867 42.288 20.0267 42.9341 18.4 42.9341H9.20001C8.29066 42.9331 7.39289 42.7301 6.57155 42.3399C5.75021 41.9496 5.02581 41.3817 4.45069 40.6774C3.87556 39.973 3.46407 39.1497 3.24594 38.2669C3.0278 37.3841 3.00847 36.4639 3.18934 35.5727L0.184012 34.9625C-0.180688 36.7588 -0.000689246 38.6232 0.700942 40.3166C1.40257 42.01 2.59387 43.4554 4.12219 44.4675C2.61967 45.4615 1.44225 46.8749 0.736171 48.5323C0.030089 50.1897 -0.17355 52.018 0.150544 53.7902C0.474639 55.5623 1.31219 57.2002 2.55917 58.5004C3.80616 59.8007 5.40763 60.706 7.1647 61.1038C6.10829 62.2029 5.34185 63.5474 4.93441 65.0163C4.52698 66.4853 4.49135 68.0325 4.83073 69.5186C5.17011 71.0048 5.87385 72.3832 6.87856 73.5297C7.88326 74.6761 9.15738 75.5547 10.5861 76.0862C9.23688 77.3457 8.298 78.9823 7.8917 80.7828C7.48539 82.5833 7.63049 84.4645 8.30809 86.1814C8.98569 87.8983 10.1644 89.3716 11.6909 90.4093C13.2173 91.4471 15.0208 92.0014 16.8667 92H26.0667C28.2823 91.997 30.4226 91.1957 32.0954 89.7429C33.7682 88.29 34.8613 86.283 35.1745 84.0897C38.6611 85.2716 42.3185 85.872 46 85.8668C64.6007 85.8668 79.7333 70.7344 79.7333 52.134C79.7559 45.2121 77.6269 38.4542 73.6408 32.7951L78.2 28.2368C78.485 27.952 78.711 27.6139 78.8652 27.2417C79.0195 26.8695 79.0988 26.4706 79.0988 26.0678C79.0988 25.6649 79.0195 25.266 78.8652 24.8938C78.711 24.5216 78.485 24.1835 78.2 23.8987L74.2356 19.9345C73.6598 19.3602 72.8798 19.0377 72.0666 19.0377C71.2534 19.0377 70.4733 19.3602 69.8976 19.9345L69.2869 20.5452L67.6371 15.5943C67.185 14.2378 67.0444 12.7969 67.2256 11.3787C67.4068 9.96039 67.9051 8.60114 68.6837 7.40187C69.4622 6.20259 70.5009 5.19409 71.7226 4.45127C72.9443 3.70844 74.3177 3.25037 75.7407 3.11107L88.9333 29.4964V72.067C88.9283 76.5387 87.1496 80.8258 83.9876 83.9877C80.8256 87.1497 76.5384 88.9283 72.0667 88.9334H35.2667V92H72.0667C77.3515 91.994 82.4181 89.892 86.1551 86.1552C89.892 82.4183 91.994 77.3517 92 72.067V29.1344C92 28.8963 91.9446 28.6615 91.838 28.4486ZM49.0667 12.268H42.9333V9.20137H49.0667V12.268ZM44.4667 15.3346H47.5333V18.4371C46.5154 18.3918 45.4825 18.3918 44.4667 18.4371V15.3346ZM46 3.06814C47.6091 3.06814 49.1774 3.57441 50.4828 4.51526C51.7882 5.4561 52.7644 6.7838 53.2732 8.3103C53.7821 9.8368 53.7977 11.4847 53.3179 13.0206C52.8382 14.5565 51.8873 15.9025 50.6 16.8679V15.3346C51.0067 15.3346 51.3967 15.1731 51.6842 14.8855C51.9718 14.598 52.1333 14.208 52.1333 13.8013V7.66806C52.1333 7.2614 51.9718 6.8714 51.6842 6.58385C51.3967 6.2963 51.0067 6.13475 50.6 6.13475H41.4C40.9933 6.13475 40.6033 6.2963 40.3158 6.58385C40.0282 6.8714 39.8667 7.2614 39.8667 7.66806V13.8013C39.8667 14.208 40.0282 14.598 40.3158 14.8855C40.6033 15.1731 40.9933 15.3346 41.4 15.3346V16.8679C40.1127 15.9025 39.1618 14.5565 38.6821 13.0206C38.2023 11.4847 38.2179 9.8368 38.7268 8.3103C39.2356 6.7838 40.2119 5.4561 41.5172 4.51526C42.8226 3.57441 44.3909 3.06814 46 3.06814ZM17.5021 27.6011L15.9687 26.0678L19.9333 22.1036L24.2131 26.3832C23.4706 27.0119 22.755 27.6727 22.0664 28.3656C20.9101 27.8606 19.6618 27.6003 18.4 27.6011H17.5021ZM3.06668 52.134C3.0685 50.5079 3.71528 48.949 4.86511 47.7992C6.01493 46.6494 7.57391 46.0026 9.20001 46.0008H18.4C20.0267 46.0008 21.5867 46.6469 22.7369 47.7971C23.8872 48.9473 24.5333 50.5074 24.5333 52.134C24.5333 53.7606 23.8872 55.3206 22.7369 56.4708C21.5867 57.621 20.0267 58.2672 18.4 58.2672H9.20001C7.57391 58.2654 6.01493 57.6186 4.86511 56.4688C3.71528 55.319 3.0685 53.7601 3.06668 52.134ZM13.8 73.6003C12.1733 73.6003 10.6133 72.9541 9.46309 71.8039C8.31287 70.6537 7.66668 69.0937 7.66668 67.4671C7.66668 65.8404 8.31287 64.2804 9.46309 63.1302C10.6133 61.98 12.1733 61.3338 13.8 61.3338H23C24.6267 61.3338 26.1867 61.98 27.3369 63.1302C28.4872 64.2804 29.1333 65.8404 29.1333 67.4671C29.1333 69.0937 28.4872 70.6537 27.3369 71.8039C26.1867 72.9541 24.6267 73.6003 23 73.6003H13.8ZM26.0667 88.9334H16.8667C15.24 88.9334 13.68 88.2872 12.5298 87.137C11.3795 85.9868 10.7333 84.4268 10.7333 82.8002C10.7333 81.1735 11.3795 79.6135 12.5298 78.4633C13.68 77.3131 15.24 76.6669 16.8667 76.6669H26.0667C27.6933 76.6669 29.2534 77.3131 30.4036 78.4633C31.5538 79.6135 32.2 81.1735 32.2 82.8002C32.2 84.4268 31.5538 85.9868 30.4036 87.137C29.2534 88.2872 27.6933 88.9334 26.0667 88.9334ZM46 82.8002C42.2542 82.8067 38.5392 82.123 35.0413 80.7831C34.7029 79.2916 33.9994 77.9075 32.9939 76.7551C31.9884 75.6027 30.7124 74.7181 29.2805 74.1807C30.8308 72.7353 31.8331 70.7979 32.1172 68.6974C32.4013 66.597 31.9496 64.463 30.839 62.6577L33.488 61.1286L31.9547 58.4725L28.7715 60.31C27.681 59.4279 26.4028 58.8076 25.0351 58.4968C26.3131 57.1678 27.1613 55.4848 27.4693 53.6669H30.6667V50.6007H27.4699C27.2586 49.36 26.7954 48.1757 26.1088 47.1208C25.4222 46.066 24.5268 45.163 23.4778 44.4675C24.6365 43.702 25.6066 42.6839 26.3151 41.4895C27.0236 40.2952 27.4521 38.9558 27.5683 37.572C27.6846 36.1882 27.4855 34.796 26.9862 33.5002C26.4868 32.2044 25.7001 31.0387 24.6853 30.0908C27.8717 27.008 31.6888 24.653 35.8735 23.1883C40.0581 21.7236 44.5107 21.184 48.9241 21.6068C64.2668 23.0905 76.6667 36.5786 76.6667 52.134C76.6667 69.0435 62.9096 82.8002 46 82.8002ZM72.0667 22.1036L76.0309 26.0678L71.7491 30.3495C70.5397 28.9204 69.2139 27.5941 67.7852 26.3842L72.0667 22.1036Z" fill="black"/>
<path d="M46.0002 24.5342C39.4583 24.535 33.1293 26.8585 28.1409 31.0906L30.1262 33.4274C33.4739 30.5904 37.5215 28.7035 41.8468 27.9634C46.1721 27.2234 50.6168 27.6572 54.7173 29.2197C58.8179 30.7822 62.4241 33.4162 65.1601 36.847C67.896 40.2778 69.6615 44.3797 70.2723 48.7251C70.8831 53.0705 70.317 57.5002 68.6329 61.5523C66.9488 65.6044 64.2084 69.1305 60.6976 71.7629C57.1867 74.3953 53.0339 76.0376 48.6721 76.5186C44.3104 76.9996 39.8995 76.3017 35.8993 74.4976L34.6343 77.2917C38.2046 78.9095 42.0805 79.7421 46.0002 79.7333C61.2185 79.7333 73.6002 67.3518 73.6002 52.1337C73.6002 36.9156 61.2185 24.5342 46.0002 24.5342Z" fill="black"/>
<path d="M44.4666 67.4668H47.5332V73.6H44.4666V67.4668Z" fill="black"/>
<path d="M44.4666 30.6675H47.5332V36.8007H44.4666V30.6675Z" fill="black"/>
<path d="M52.3374 66.1777L54.9932 64.6444L58.0599 69.9559L55.4041 71.4892L52.3374 66.1777Z" fill="black"/>
<path d="M33.9377 34.3091L36.5935 32.7757L39.6603 38.0872L37.0045 39.6206L33.9377 34.3091Z" fill="black"/>
<path d="M58.511 61.1294L60.0443 58.4738L65.3558 61.5405L63.8226 64.1961L58.511 61.1294Z" fill="black"/>
<path d="M26.6414 42.729L28.1746 40.0734L33.4862 43.1401L31.9529 45.7957L26.6414 42.729Z" fill="black"/>
<path d="M61.3333 50.6006H67.4666V53.6672H61.3333V50.6006Z" fill="black"/>
<path d="M52.3376 38.0898L55.4044 32.7783L58.0602 34.3117L54.9934 39.6232L52.3376 38.0898Z" fill="black"/>
<path d="M33.9368 69.959L37.0035 64.6475L39.6593 66.1808L36.5926 71.4923L33.9368 69.959Z" fill="black"/>
<path d="M41.3999 52.134C41.3994 52.7748 41.5328 53.4086 41.7916 53.9949C42.0503 54.5811 42.4287 55.1068 42.9025 55.5383C43.3762 55.9698 43.9349 56.2975 44.5427 56.5005C45.1506 56.7035 45.7941 56.7773 46.432 56.7171C47.07 56.6569 47.6884 56.464 48.2475 56.1509C48.8066 55.8378 49.2941 55.4114 49.6788 54.8989C50.0635 54.3864 50.3369 53.7992 50.4814 53.1749C50.6259 52.5506 50.6384 51.903 50.5181 51.2736L65.1725 42.7254L63.6273 40.0767L48.9707 48.6266C48.3018 48.0588 47.4843 47.6944 46.6148 47.5764C45.7454 47.4583 44.8603 47.5916 44.0642 47.9605C43.2681 48.3293 42.5942 48.9183 42.122 49.6578C41.6499 50.3974 41.3993 51.2566 41.3999 52.134ZM45.9999 50.6007C46.3032 50.6007 46.5996 50.6906 46.8518 50.8591C47.1039 51.0276 47.3005 51.2671 47.4165 51.5473C47.5326 51.8274 47.5629 52.1357 47.5038 52.4332C47.4446 52.7306 47.2986 53.0038 47.0841 53.2182C46.8697 53.4327 46.5965 53.5787 46.299 53.6379C46.0016 53.697 45.6933 53.6667 45.4131 53.5506C45.1329 53.4346 44.8935 53.238 44.725 52.9859C44.5565 52.7337 44.4666 52.4373 44.4666 52.134C44.467 51.7275 44.6287 51.3378 44.9162 51.0503C45.2036 50.7629 45.5934 50.6012 45.9999 50.6007Z" fill="black"/>
</svg>
